<?xml version="1.0" standalone="no"?>
<!DOCTYPE svg PUBLIC "-//W3C//DTD SVG 20010904//EN"
 "http://www.w3.org/TR/2001/REC-SVG-20010904/DTD/svg10.dtd">
<svg version="1.0" xmlns="http://www.w3.org/2000/svg"
 width="2665.000000pt" height="2665.000000pt" viewBox="0 0 2665.000000 2665.000000"
 preserveAspectRatio="xMidYMid meet">
<metadata>
Created by potrace 1.14, written by Peter Selinger 2001-2017
</metadata>
<g transform="translate(0.000000,2665.000000) scale(0.100000,-0.100000)"
fill="#000000" stroke="none">
<path d="M1894 16427 c-20 -4 -48 -14 -63 -21 -14 -8 -54 -27 -88 -42 -35 -15
-63 -31 -63 -37 0 -6 -3 -8 -6 -4 -6 5 -58 -21 -166 -82 -16 -9 -28 -20 -28
-24 0 -5 -4 -6 -9 -3 -5 3 -20 -5 -34 -18 -14 -13 -28 -22 -30 -20 -2 3 -19
-9 -36 -25 -18 -17 -34 -30 -36 -30 -3 -1 -8 -1 -13 -1 -4 0 -18 -10 -32 -23
-14 -12 -34 -29 -46 -37 -31 -22 -111 -89 -159 -135 -24 -22 -60 -55 -80 -72
-20 -18 -35 -33 -33 -33 2 0 -38 -43 -89 -96 -51 -53 -90 -100 -87 -105 3 -5
-2 -9 -11 -9 -9 0 -13 -4 -10 -10 3 -5 2 -10 -2 -10 -11 0 -90 -102 -83 -108
3 -2 -3 -8 -12 -13 -10 -6 -18 -17 -18 -25 0 -8 -4 -13 -9 -10 -5 4 -15 -7
-23 -24 -7 -16 -16 -30 -20 -30 -5 0 -8 -6 -8 -14 0 -8 -4 -16 -8 -18 -11 -4
-92 -135 -92 -148 0 -5 -4 -10 -10 -10 -5 0 -10 -6 -10 -14 0 -8 -6 -21 -13
-28 -17 -18 -63 -110 -59 -120 1 -4 -3 -8 -9 -8 -5 0 -7 -4 -4 -10 3 -5 2 -10
-3 -10 -4 0 -19 -24 -32 -52 -12 -29 -32 -73 -43 -98 -46 -105 -55 -128 -50
-134 4 -3 1 -6 -5 -6 -9 0 -26 -50 -22 -66 1 -4 -3 -10 -9 -13 -5 -4 -12 -19
-15 -35 -3 -15 -9 -33 -15 -40 -5 -6 -12 -23 -14 -36 -2 -14 -6 -32 -10 -40
-21 -55 -36 -114 -31 -121 3 -5 1 -9 -4 -9 -5 0 -9 -6 -9 -12 -1 -20 -10 -60
-20 -88 -5 -14 -9 -32 -8 -40 1 -8 -2 -19 -6 -25 -4 -5 -9 -28 -13 -50 -3 -22
-8 -53 -12 -70 -3 -16 -8 -41 -9 -55 -2 -14 -4 -25 -5 -25 -2 0 -9 -49 -14
-100 -3 -22 -6 -40 -7 -40 -1 0 -3 -16 -4 -35 -2 -19 -6 -69 -11 -110 -9 -83
-10 -548 -1 -650 3 -36 9 -85 12 -110 3 -25 8 -60 10 -78 2 -18 6 -45 9 -60 3
-15 8 -44 11 -64 2 -21 14 -81 26 -135 12 -54 23 -105 24 -113 2 -8 4 -16 5
-17 2 -2 3 -6 4 -10 4 -19 28 -109 34 -123 3 -8 4 -21 3 -27 -1 -7 3 -13 9
-13 6 0 8 -5 5 -10 -4 -6 -2 -16 3 -23 5 -7 12 -24 16 -39 3 -15 11 -40 18
-55 13 -32 12 -28 22 -70 4 -18 12 -33 16 -33 5 0 7 -7 4 -15 -4 -8 -1 -15 7
-15 7 0 10 -3 7 -6 -4 -3 3 -27 14 -52 11 -26 29 -67 40 -92 37 -84 72 -155
87 -172 8 -10 11 -18 7 -18 -4 0 1 -12 12 -27 11 -16 23 -38 26 -50 4 -13 12
-23 18 -23 6 0 8 -3 5 -7 -4 -3 -1 -13 5 -21 15 -17 34 -49 47 -79 6 -13 15
-23 21 -23 6 0 9 -4 6 -9 -3 -5 7 -21 22 -37 15 -15 20 -24 12 -20 -9 5 -8 2
2 -7 10 -8 15 -17 11 -20 -3 -4 2 -9 11 -13 9 -3 16 -12 16 -20 0 -7 8 -18 17
-23 10 -6 15 -11 11 -11 -8 0 12 -27 44 -62 10 -10 16 -18 13 -18 -6 0 20 -33
53 -67 12 -13 22 -28 22 -34 0 -6 4 -8 8 -5 4 2 13 -8 21 -24 7 -16 21 -32 32
-35 10 -4 19 -12 19 -18 0 -15 205 -217 220 -217 6 0 9 -4 5 -9 -3 -5 8 -18
25 -27 16 -10 30 -23 30 -28 0 -5 3 -6 7 -3 3 4 12 -2 20 -12 7 -11 43 -41 80
-67 38 -26 70 -50 73 -54 8 -9 59 -40 65 -40 3 0 17 -11 31 -25 14 -14 30 -23
35 -20 5 4 9 2 9 -3 0 -5 12 -15 27 -23 16 -7 46 -25 68 -38 22 -13 46 -24 52
-24 7 0 13 -3 13 -6 0 -7 62 -40 140 -74 128 -57 150 -66 150 -60 0 3 6 1 13
-4 6 -6 26 -14 42 -18 37 -10 35 -9 66 -22 14 -6 39 -13 55 -16 16 -3 48 -11
71 -19 l41 -15 -4 61 c-3 34 -7 84 -9 111 -6 77 -18 448 -17 555 1 121 10 400
16 465 3 28 8 84 11 125 4 41 9 93 11 115 2 22 7 65 10 95 11 107 13 125 14
125 2 0 8 42 14 100 3 22 9 62 15 90 5 27 7 53 5 57 -3 5 -2 14 3 21 8 13 11
25 17 77 2 19 5 35 6 35 3 0 11 40 15 75 2 19 4 35 5 35 2 0 4 12 13 55 6 28
26 114 34 145 3 11 5 30 6 43 1 12 4 22 7 22 4 0 7 6 7 13 1 20 10 58 28 121
9 32 19 66 20 75 2 9 4 16 6 16 1 0 3 9 4 20 2 11 10 39 19 63 8 23 15 44 16
47 0 3 0 6 1 8 0 1 2 9 4 17 10 43 98 299 111 323 8 15 13 27 10 27 -3 0 3 20
14 45 11 25 19 46 19 48 0 5 32 83 42 100 5 10 7 22 4 27 -4 6 -2 10 3 10 9 0
24 32 26 57 1 7 7 18 14 25 6 6 12 17 12 23 0 6 9 27 19 47 11 19 17 39 14 42
-4 3 -2 6 4 6 6 0 14 10 18 23 4 12 8 24 9 27 1 3 10 20 19 38 10 17 15 32 12
32 -2 0 3 9 13 20 9 12 17 24 17 28 1 4 12 27 25 52 13 25 23 48 22 53 -1 4 2
7 8 7 5 0 10 6 10 13 0 8 9 24 20 37 11 13 20 27 20 32 0 4 19 39 41 76 23 37
42 73 42 80 0 6 4 12 8 12 4 0 20 22 36 50 15 27 31 50 36 50 4 0 7 7 7 15 0
8 5 15 11 15 5 0 7 5 4 10 -3 6 1 10 10 10 9 0 19 -9 22 -20 3 -11 9 -20 13
-20 4 0 15 -16 24 -35 9 -19 21 -35 27 -35 6 0 8 -4 4 -9 -3 -5 1 -15 8 -23
17 -18 67 -94 84 -128 4 -8 12 -20 17 -27 23 -26 32 -39 51 -76 11 -21 28 -47
38 -57 9 -11 17 -21 17 -24 0 -8 92 -149 107 -164 7 -7 13 -20 13 -28 0 -8 5
-14 10 -14 6 0 10 -7 10 -15 0 -8 5 -15 10 -15 6 0 10 -7 10 -15 0 -8 5 -15
10 -15 6 0 10 -6 10 -13 0 -7 8 -22 18 -33 10 -10 19 -23 20 -29 1 -5 10 -19
19 -30 10 -11 18 -27 20 -35 1 -8 10 -22 21 -30 10 -8 18 -19 18 -23 -1 -4 10
-20 24 -34 14 -15 19 -23 11 -18 -16 9 66 -114 88 -133 9 -8 10 -10 3 -7 -8 4
3 -15 22 -43 20 -27 36 -54 36 -61 0 -6 5 -11 10 -11 6 0 10 -7 10 -15 0 -8 5
-15 10 -15 6 0 10 -7 10 -15 0 -8 5 -15 10 -15 6 0 10 -6 10 -13 0 -7 10 -24
23 -37 12 -14 21 -27 21 -30 -3 -13 9 -29 19 -23 5 3 7 2 4 -4 -4 -5 2 -19 11
-29 10 -10 20 -23 22 -29 10 -27 43 -75 52 -75 5 0 7 -4 3 -9 -3 -5 2 -16 10
-24 8 -9 15 -18 15 -21 0 -2 27 -45 60 -95 33 -50 60 -95 60 -101 0 -5 5 -10
10 -10 6 0 10 -5 10 -11 0 -7 8 -19 18 -28 9 -9 18 -23 20 -31 2 -8 8 -16 13
-18 5 -2 9 -10 9 -18 0 -8 4 -14 9 -14 5 0 11 -10 15 -22 3 -13 17 -35 31 -50
14 -16 24 -28 21 -28 -3 0 11 -24 30 -52 19 -29 34 -56 34 -61 0 -4 5 -5 12
-1 7 4 8 3 4 -4 -4 -6 2 -20 14 -32 11 -11 17 -20 13 -20 -5 0 1 -7 11 -15 11
-8 17 -15 13 -15 -4 0 15 -34 43 -75 27 -41 50 -79 50 -85 0 -5 5 -10 10 -10
6 0 10 -7 10 -15 0 -8 5 -15 10 -15 6 0 10 -7 10 -15 0 -8 4 -15 9 -15 5 0 11
-8 15 -17 5 -17 20 -43 39 -67 4 -6 32 -49 62 -96 29 -47 62 -96 72 -110 10
-14 25 -37 32 -52 8 -16 18 -28 23 -28 4 0 8 -5 8 -11 0 -6 14 -30 30 -54 16
-24 30 -48 30 -54 0 -6 4 -11 9 -11 5 0 14 -13 21 -30 7 -16 16 -30 21 -30 5
0 9 -4 9 -9 0 -12 60 -103 73 -112 5 -3 8 -9 8 -12 -1 -12 41 -77 50 -77 5 0
8 -3 6 -8 -2 -9 64 -115 75 -120 5 -2 8 -8 8 -14 0 -6 11 -26 25 -44 14 -18
25 -35 25 -38 0 -9 64 -101 72 -104 5 -2 6 -8 2 -13 -3 -5 -1 -9 4 -9 5 0 12
-8 16 -17 6 -18 27 -54 36 -63 3 -3 33 -48 65 -100 33 -52 63 -96 67 -98 4 -2
8 -10 8 -18 0 -8 5 -14 10 -14 6 0 10 -4 10 -9 0 -8 68 -117 150 -241 5 -8 27
-42 48 -75 l38 -60 1275 -1 1274 -1 65 25 c36 14 68 30 72 36 4 6 8 7 8 3 0
-10 181 82 285 146 222 135 466 341 635 535 30 35 60 69 65 75 78 90 217 289
300 430 84 145 245 486 245 521 0 5 7 22 14 39 23 50 81 235 77 245 -1 1 5 18
13 37 8 19 13 35 11 35 -2 0 1 15 6 33 11 36 13 42 34 147 21 104 23 112 31
167 3 26 8 57 10 68 2 11 6 47 9 80 3 33 7 71 10 85 4 22 17 280 18 350 0 56
-14 354 -17 359 -2 3 -7 39 -10 80 -4 41 -8 77 -10 80 -2 3 -7 29 -10 56 -8
70 -23 153 -51 270 -9 39 -18 77 -20 85 -2 8 -8 30 -14 48 -5 18 -10 34 -11
37 -5 26 -73 239 -80 250 -3 6 -12 28 -19 50 -7 22 -19 54 -26 70 -8 17 -29
66 -48 110 -57 132 -113 236 -122 228 -4 -5 -5 -3 -2 3 6 11 -108 211 -142
251 -6 7 -11 15 -11 19 0 14 -38 53 -45 46 -5 -4 -5 -2 -2 4 3 6 -3 20 -13 32
-11 12 -20 24 -20 27 0 6 -54 78 -78 104 -7 7 -20 24 -29 37 -8 13 -20 21 -27
17 -6 -3 -8 -3 -4 2 9 9 -52 81 -65 77 -5 -1 -6 1 -3 6 6 9 -154 169 -259 259
-81 69 -243 189 -281 208 -17 8 -37 21 -44 30 -7 8 -16 12 -21 9 -5 -3 -9 -1
-9 3 0 5 -21 20 -47 33 -27 14 -50 27 -53 30 -9 11 -202 101 -269 126 -97 38
-260 90 -304 98 l-38 7 5 -53 c4 -29 9 -93 13 -143 9 -118 9 -867 0 -970 -4
-44 -10 -109 -13 -145 -14 -161 -32 -325 -40 -365 -3 -11 -7 -40 -9 -65 -3
-25 -14 -94 -24 -155 -10 -60 -17 -113 -14 -117 2 -5 -1 -8 -6 -8 -6 0 -10 -3
-9 -7 1 -5 -2 -33 -7 -63 -5 -30 -10 -59 -10 -65 0 -5 -4 -16 -8 -22 -5 -7 -6
-13 -3 -13 2 0 0 -15 -5 -32 -5 -18 -12 -48 -15 -67 -3 -19 -10 -45 -15 -58
-5 -13 -6 -23 -4 -23 2 0 0 -11 -5 -25 -5 -14 -12 -36 -14 -48 -6 -35 -67
-257 -83 -306 -8 -24 -16 -51 -18 -60 -2 -9 -22 -70 -45 -136 -22 -66 -42
-127 -43 -135 -1 -8 -4 -17 -7 -20 -8 -7 -51 -121 -53 -140 -1 -8 -4 -17 -7
-20 -3 -3 -19 -36 -34 -75 -41 -99 -68 -158 -154 -335 -41 -85 -74 -158 -74
-162 1 -5 -2 -8 -7 -8 -5 0 -14 -15 -22 -32 -7 -18 -15 -35 -18 -38 -3 -3 -17
-25 -31 -50 -13 -25 -34 -60 -47 -79 -12 -18 -20 -37 -17 -42 3 -5 1 -9 -4 -9
-5 0 -25 -25 -43 -56 -19 -30 -42 -65 -51 -77 -18 -22 -18 -22 -33 -2 -8 11
-20 27 -27 35 -7 8 -12 18 -11 21 1 4 -10 20 -24 35 -15 16 -26 29 -24 29 8 0
-16 43 -32 58 -11 9 -17 17 -14 17 5 0 -48 88 -70 115 -4 6 -14 22 -22 37 -8
15 -22 36 -31 45 -9 10 -17 20 -17 23 -7 25 -17 39 -24 34 -5 -3 -8 -2 -7 3 4
12 -52 103 -64 103 -5 0 -7 4 -3 9 3 5 -2 16 -10 24 -8 9 -15 18 -15 21 0 3
-26 45 -58 93 -32 48 -68 105 -81 126 -12 20 -28 37 -33 37 -6 0 -8 3 -5 6 8
8 -24 64 -35 64 -4 0 -8 4 -8 10 0 13 -119 194 -131 198 -5 2 -7 8 -4 12 3 5
-3 18 -15 30 -11 11 -18 20 -15 20 2 0 -17 33 -43 73 -27 39 -61 93 -77 119
-17 27 -34 48 -38 48 -5 0 -5 5 -2 10 3 6 1 10 -4 10 -6 0 -11 7 -11 15 0 8
-4 15 -10 15 -5 0 -10 7 -10 15 0 8 -4 15 -10 15 -5 0 -10 5 -10 10 0 9 -126
208 -139 220 -3 3 -14 22 -25 42 -10 20 -27 46 -38 57 -10 11 -19 24 -19 28
-3 20 -12 32 -20 27 -5 -3 -9 4 -9 14 0 11 -7 25 -15 32 -8 7 -15 18 -15 26 0
7 -8 19 -17 26 -10 7 -19 20 -21 28 -2 8 -8 17 -13 18 -5 2 -9 10 -9 18 0 8
-7 17 -15 20 -8 4 -13 10 -10 14 3 4 -8 20 -23 36 -15 15 -21 24 -15 20 7 -4
-8 24 -33 61 -26 37 -51 70 -55 71 -5 2 -7 8 -4 12 3 5 -5 18 -17 29 -12 12
-18 21 -14 21 5 0 -3 15 -16 33 -13 17 -44 64 -68 102 -23 39 -48 73 -54 77
-6 4 -7 8 -2 8 5 0 -1 9 -14 20 -13 11 -20 20 -16 20 4 0 -1 14 -11 30 -9 17
-21 30 -25 30 -4 0 -8 7 -8 15 0 7 -8 19 -17 24 -10 6 -14 11 -10 11 4 0 -6
20 -23 44 -16 25 -30 47 -30 51 0 4 -6 13 -12 20 -26 29 -38 44 -38 49 0 12
-64 106 -72 106 -5 0 -7 4 -4 8 3 5 -4 18 -14 30 -11 12 -20 24 -20 28 0 7
-72 119 -90 141 -5 7 -10 17 -10 23 0 5 -4 10 -10 10 -5 0 -10 7 -10 15 0 8
-3 15 -8 15 -4 0 -13 13 -20 28 -6 16 -21 38 -32 50 -11 12 -20 24 -20 27 0 3
-16 31 -36 62 -84 134 -128 199 -143 211 -13 11 -13 12 -1 6 14 -7 -14 33 -33
47 -5 3 -9 10 -8 15 0 14 -37 74 -47 74 -5 0 -9 6 -9 13 0 14 -83 140 -95 145
-5 2 -6 7 -3 12 3 4 -2 13 -10 20 -8 7 -15 17 -15 22 0 8 -6 17 -40 57 -8 10
-16 24 -18 32 -2 8 -8 16 -13 17 -5 2 -9 8 -9 14 0 7 -49 86 -67 108 -7 8
-2529 6 -2569 -3z"/>
<path d="M17787 15034 c-1 -1 -42 -4 -92 -7 -231 -15 -413 -57 -642 -148 -142
-56 -352 -182 -468 -281 -89 -76 -225 -220 -286 -302 -33 -45 -63 -86 -68 -92
-59 -74 -216 -386 -236 -469 -1 -5 -7 -22 -13 -37 -11 -27 -59 -198 -68 -241
-6 -34 -33 -178 -39 -212 -21 -128 -28 -513 -12 -665 8 -72 30 -218 42 -270 3
-14 7 -37 10 -51 21 -117 125 -392 201 -536 36 -70 147 -241 181 -279 10 -12
38 -46 63 -75 269 -317 675 -538 1110 -603 185 -28 454 -29 651 -1 164 23 405
95 557 166 515 244 884 712 1036 1314 8 33 17 71 20 85 2 14 7 36 10 50 9 37
15 79 22 135 3 28 7 55 9 62 8 25 19 243 19 368 -1 122 -10 275 -19 320 -2 11
-6 38 -9 60 -5 43 -40 208 -55 265 -6 19 -14 51 -19 70 -37 140 -153 389 -249
535 -206 312 -509 565 -818 684 -33 13 -73 29 -90 36 -32 14 -189 60 -240 70
-43 8 -146 26 -175 30 -67 9 -327 24 -333 19z m252 -199 c47 -3 87 -8 90 -9 3
-2 26 -7 51 -10 184 -25 407 -107 595 -219 55 -33 102 -63 105 -66 3 -3 21
-18 40 -33 30 -23 70 -55 105 -86 28 -25 153 -162 177 -194 167 -222 282 -471
343 -743 15 -66 28 -129 30 -140 1 -11 6 -47 10 -80 4 -33 9 -73 12 -90 9 -45
8 -399 0 -485 -22 -224 -54 -383 -114 -560 -157 -461 -437 -794 -842 -998 -74
-37 -137 -67 -140 -68 -3 0 -50 -15 -105 -32 -108 -34 -259 -67 -376 -81 -75
-9 -447 -7 -485 2 -11 2 -40 8 -65 12 -25 4 -81 16 -125 27 -44 10 -87 21 -95
23 -9 1 -59 19 -111 39 -254 95 -485 259 -652 461 -23 28 -45 52 -48 55 -40
32 -249 409 -249 451 0 8 -4 19 -9 25 -8 8 -57 159 -65 201 -2 10 -9 36 -14
58 -51 191 -77 537 -57 760 47 541 232 973 555 1295 184 184 392 313 635 394
139 47 162 53 205 60 19 3 60 10 90 16 30 6 96 13 145 17 50 3 91 6 92 7 5 4
188 -2 272 -9z"/>
<path d="M17748 14285 c-2 -2 -27 -6 -56 -9 -29 -3 -71 -10 -95 -17 -23 -6
-49 -12 -57 -14 -31 -6 -121 -45 -177 -77 -272 -153 -468 -460 -547 -860 -30
-153 -37 -217 -41 -393 -3 -166 6 -285 35 -435 6 -30 13 -67 15 -82 11 -59 75
-238 114 -317 42 -86 118 -206 155 -246 66 -71 87 -93 117 -121 116 -105 287
-185 449 -212 90 -14 311 -8 390 12 227 58 405 182 547 381 96 135 205 394
229 545 2 14 9 52 14 85 23 132 27 184 28 358 0 217 -21 389 -69 557 -16 55
-14 51 -23 75 -4 11 -17 45 -29 75 -99 263 -274 475 -489 589 -79 42 -208 86
-284 97 -49 6 -221 13 -226 9z m252 -208 c165 -39 308 -138 435 -299 64 -81
177 -337 199 -448 2 -14 9 -48 15 -77 60 -305 36 -684 -61 -963 -30 -87 -123
-272 -139 -278 -5 -2 -9 -8 -9 -13 0 -23 -134 -157 -204 -203 -185 -122 -436
-153 -656 -80 -135 45 -271 145 -366 269 -97 126 -191 355 -221 540 -25 153
-29 204 -27 366 0 101 4 202 8 224 54 319 114 492 228 655 124 176 314 299
493 317 28 3 52 7 54 9 10 9 192 -5 251 -19z"/>
<path d="M12194 14972 l-22 -3 0 -2083 0 -2082 510 0 509 0 -3 1152 c-2 838 0
1150 8 1141 9 -10 41 -67 199 -352 15 -27 42 -75 60 -105 18 -30 42 -71 53
-90 26 -47 427 -718 543 -910 5 -8 47 -80 94 -160 47 -80 89 -152 94 -160 149
-250 233 -389 268 -446 l43 -71 499 1 c275 1 502 4 506 8 7 7 9 4147 2 4154
-3 4 -724 7 -980 4 l-38 0 3 -1070 c2 -589 1 -1070 -2 -1070 -3 0 -27 39 -53
88 -64 117 -106 192 -125 222 -9 14 -27 45 -40 70 -14 25 -31 52 -38 61 -8 8
-14 21 -14 27 0 7 -4 12 -10 12 -5 0 -10 4 -10 9 0 5 -30 59 -67 120 -38 61
-122 201 -188 311 -111 185 -505 836 -526 870 -34 56 -145 241 -161 270 -10
19 -27 45 -37 58 l-17 23 -519 2 c-286 1 -530 1 -541 -1z m960 -193 c2 -2 24
-37 48 -77 23 -40 108 -181 188 -313 80 -132 153 -253 163 -269 9 -17 25 -43
35 -60 90 -152 528 -876 532 -880 3 -3 41 -68 85 -145 43 -77 103 -183 133
-235 91 -160 327 -640 404 -825 40 -95 51 -103 44 -35 -9 97 -16 183 -21 275
-3 50 -7 126 -10 170 -2 44 -8 141 -12 215 -4 74 -7 596 -7 1159 l-1 1023 295
0 c162 0 306 -1 320 -1 l25 -1 -2 -1892 -1 -1893 -359 -2 -358 -3 -90 152
c-50 83 -101 169 -114 192 -13 22 -94 158 -180 301 -85 143 -161 269 -167 280
-13 24 -480 809 -502 845 -9 14 -14 25 -11 25 2 0 -6 14 -17 30 -85 120 -526
976 -576 1118 -6 15 -14 27 -20 27 -9 0 -8 -57 7 -425 12 -272 17 -1097 15
-2357 l0 -187 -317 2 -318 2 -2 1892 -1 1892 21 3 c32 4 767 2 771 -3z"/>
<path d="M20234 14970 l-51 -5 -1 -475 0 -476 539 1 c351 0 540 -3 542 -10 2
-5 3 -728 2 -1606 l0 -1595 535 0 535 1 0 1595 c1 878 4 1600 7 1605 4 6 203
10 547 9 l541 0 0 480 0 481 -1573 0 c-864 0 -1595 -2 -1623 -5z m3004 -477
l-3 -288 -539 -2 c-296 -1 -541 -4 -544 -7 -2 -3 -5 -718 -4 -1588 0 -871 -2
-1591 -5 -1601 -4 -17 -26 -17 -346 -15 l-342 3 -1 1597 c0 879 -3 1601 -7
1604 -3 4 -247 6 -542 6 l-535 -1 0 290 0 289 1435 0 1435 0 -2 -287z"/>
<path d="M24023 14972 l-53 -3 0 -2083 0 -2082 1328 0 c730 1 1332 4 1337 8 6
4 9 167 9 460 -1 249 -2 459 -3 466 -1 9 -168 12 -800 12 l-798 0 0 363 c0
199 4 364 8 367 4 3 324 5 712 5 629 -1 706 1 709 15 3 13 2 886 -1 915 -1 7
-246 10 -715 10 l-713 0 1 300 1 300 755 0 755 0 2 468 c1 376 -1 469 -11 473
-14 5 -2435 11 -2523 6z m2347 -473 l0 -286 -755 1 c-415 1 -756 -1 -756 -4
-1 -3 -2 -222 -3 -487 l-2 -483 31 -1 c16 0 337 -1 713 -1 375 -1 683 -4 683
-7 4 -17 6 -528 3 -542 -4 -15 -71 -16 -709 -16 -388 0 -709 -3 -713 -7 -4 -4
-7 -254 -7 -554 l0 -547 800 -5 800 -5 0 -280 0 -280 -1147 -2 -1148 -3 0 43
c-1 67 -1 3710 0 3732 0 20 7 20 1105 20 l1105 0 0 -286z"/>
</g>
</svg>
